<svg width="25" height="25" viewBox="0 0 25 25" fill="none" xmlns="http://www.w3.org/2000/svg">
<path d="M20.3125 5.66406H17.5L16.1133 3.58398C16.06 3.50311 15.9875 3.43669 15.9023 3.39068C15.8171 3.34467 15.7218 3.32049 15.625 3.32031H9.375C9.27816 3.32049 9.18288 3.34467 9.09767 3.39068C9.01246 3.43669 8.93998 3.50311 8.88672 3.58398L7.5 5.66406H4.6875C4.11849 5.66663 3.57352 5.89381 3.17116 6.29616C2.76881 6.69852 2.54163 7.24349 2.53906 7.8125V18.75C2.54163 19.319 2.76881 19.864 3.17116 20.2663C3.57352 20.6687 4.11849 20.8959 4.6875 20.8984H20.3125C20.8815 20.8959 21.4265 20.6687 21.8288 20.2663C22.2312 19.864 22.4584 19.319 22.4609 18.75V7.8125C22.4584 7.24349 22.2312 6.69852 21.8288 6.29616C21.4265 5.89381 20.8815 5.66663 20.3125 5.66406ZM21.2891 18.75C21.2891 19.009 21.1862 19.2574 21.003 19.4405C20.8199 19.6237 20.5715 19.7266 20.3125 19.7266H4.6875C4.4285 19.7266 4.18011 19.6237 3.99697 19.4405C3.81383 19.2574 3.71094 19.009 3.71094 18.75V7.8125C3.71094 7.5535 3.81383 7.30511 3.99697 7.12197C4.18011 6.93883 4.4285 6.83594 4.6875 6.83594H7.8125C7.90934 6.83576 8.00462 6.81158 8.08983 6.76557C8.17504 6.71956 8.24752 6.65314 8.30078 6.57227L9.6875 4.49219H15.3125L16.6992 6.57227C16.7525 6.65314 16.825 6.71956 16.9102 6.76557C16.9954 6.81158 17.0907 6.83576 17.1875 6.83594H20.3125C20.5715 6.83594 20.8199 6.93883 21.003 7.12197C21.1862 7.30511 21.2891 7.5535 21.2891 7.8125V18.75ZM12.5 8.78906C11.6888 8.78906 10.8958 9.02961 10.2213 9.4803C9.5468 9.93099 9.02109 10.5716 8.71065 11.321C8.40021 12.0705 8.31899 12.8952 8.47725 13.6908C8.63551 14.4864 9.02614 15.2173 9.59976 15.7909C10.1734 16.3645 10.9042 16.7551 11.6998 16.9134C12.4955 17.0716 13.3201 16.9904 14.0696 16.68C14.8191 16.3695 15.4596 15.8438 15.9103 15.1693C16.361 14.4948 16.6016 13.7018 16.6016 12.8906C16.6016 11.8028 16.1694 10.7596 15.4002 9.99038C14.6311 9.22119 13.5878 8.78906 12.5 8.78906ZM12.5 15.8203C11.9206 15.8203 11.3541 15.6485 10.8724 15.3266C10.3906 15.0047 10.0151 14.5471 9.79332 14.0118C9.57158 13.4764 9.51356 12.8874 9.62661 12.3191C9.73965 11.7508 10.0187 11.2287 10.4284 10.819C10.8381 10.4093 11.3601 10.1303 11.9284 10.0172C12.4967 9.90419 13.0858 9.96221 13.6211 10.1839C14.1565 10.4057 14.614 10.7812 14.9359 11.263C15.2579 11.7448 15.4297 12.3112 15.4297 12.8906C15.4271 13.6668 15.1176 14.4105 14.5688 14.9594C14.0199 15.5082 13.2762 15.8177 12.5 15.8203Z" fill="black"/>
</svg>
