<svg width="162" height="54" viewBox="0 0 162 54" fill="none" xmlns="http://www.w3.org/2000/svg">
<g clip-path="url(#clip0_21_255)">
<path d="M14.2 20H0V34.3H14.2V20Z" fill="currentColor"/>
<path d="M35.3992 20H21.1992V34.3H35.3992V20Z" fill="currentColor"/>
<path d="M70.7004 20H68.9004V1.8H18.7004V52.2H69.0004V34.3H70.7004V54H16.9004V0H70.7004V20Z" fill="currentColor"/>
<path d="M154.498 24.5C154.398 24.6 154.398 24.8 154.398 25C154.398 25.2 154.398 25.4 154.498 25.5C154.598 25.6 154.698 25.7 154.798 25.7C154.898 25.7 155.098 25.8 155.198 25.8H156.398V24.2H155.198C155.098 24.2 154.898 24.2 154.798 24.3C154.698 24.3 154.598 24.4 154.498 24.5Z" fill="currentColor"/>
<path d="M128.6 24.9C128.4 24.7 128.2 24.5 128 24.4C127.7 24.3 127.5 24.2 127.1 24.2C126.8 24.2 126.5 24.3 126.2 24.4C126 24.5 125.7 24.7 125.6 24.9C125.4 25.1 125.3 25.4 125.2 25.6C125.1 25.9 125.1 26.1 125.1 26.4C125.1 26.7 125.1 27 125.2 27.2C125.3 27.5 125.4 27.7 125.6 27.9C125.8 28.1 126 28.3 126.2 28.4C126.4 28.5 126.7 28.6 127.1 28.6C127.4 28.6 127.7 28.5 128 28.4C128.3 28.3 128.5 28.1 128.6 27.9C128.8 27.7 128.9 27.4 129 27.2C129.1 26.9 129.1 26.7 129.1 26.4C129.1 26.1 129.1 25.8 129 25.6C128.9 25.4 128.8 25.1 128.6 24.9Z" fill="currentColor"/>
<path d="M111.699 19.9V34.2H161.999V19.9H111.699ZM119.699 30.8L117.399 27.5H116.999V30.8H114.599V22.2H116.999V25.4H117.499L119.699 22.2H122.299L119.299 26.4L122.599 30.9H119.699V30.8ZM131.199 28.2C130.999 28.7 130.699 29.2 130.299 29.6C129.899 30 129.399 30.3 128.899 30.6C128.399 30.8 127.799 31 127.099 31C126.399 31 125.899 30.9 125.299 30.6C124.799 30.4 124.299 30 123.899 29.6C123.499 29.2 123.199 28.7 122.999 28.2C122.799 27.7 122.699 27.1 122.699 26.6C122.699 26 122.799 25.5 122.999 25C123.199 24.5 123.499 24 123.899 23.6C124.299 23.2 124.799 22.9 125.299 22.6C125.799 22.4 126.399 22.2 127.099 22.2C127.799 22.2 128.299 22.3 128.899 22.6C129.399 22.8 129.899 23.2 130.299 23.6C130.699 24 130.999 24.5 131.199 25C131.399 25.5 131.499 26.1 131.499 26.6C131.499 27.1 131.399 27.6 131.199 28.2ZM140.299 30.8H137.899V24.2H135.199V30.8H132.799V22.2H140.199V30.8H140.299ZM149.899 30.8H147.499V25.5L144.399 30.8H142.199V22.2H144.599V27.5L147.799 22.2H149.999V30.8H149.899ZM158.799 30.8H156.399V27.8H156.099C156.099 27.8 155.999 27.8 155.899 27.8C155.799 27.8 155.799 27.8 155.699 27.8L153.999 30.8H151.299L153.299 27.5C152.799 27.3 152.499 27 152.199 26.5C151.899 26.1 151.799 25.5 151.799 24.9C151.799 24.3 151.899 23.9 152.199 23.4C152.499 23 152.799 22.6 153.199 22.4C153.599 22.2 154.099 22 154.699 22H158.699V30.8H158.799Z" fill="currentColor"/>
<path d="M44.8 32.5V30.8H38.5V22.2H40.9V28.8H43.3V22.2H45.7V28.8H46.9V32.5H44.8Z" fill="currentColor"/>
<path d="M48.3008 30.8V22.2H50.7008V27.5L53.9008 22.2H56.1008V30.8H53.7008V25.5L50.6008 30.8H48.3008Z" fill="currentColor"/>
<path d="M61.2 30.8V30C60.7 30 60.3 29.9 59.8 29.7C59.4 29.5 59 29.2 58.6 28.9C58.3 28.6 58 28.2 57.8 27.7C57.6 27.2 57.5 26.7 57.5 26.2C57.5 25.6 57.6 25.1 57.8 24.6C58 24.1 58.3 23.7 58.6 23.4C59 23.1 59.3 22.8 59.8 22.6C60.2 22.4 60.7 22.3 61.2 22.3V21.6H63.4V22.3C63.9 22.3 64.3 22.4 64.8 22.6C65.2 22.8 65.6 23 66 23.4C66.4 23.7 66.6 24.1 66.8 24.6C67 25.1 67.1 25.6 67.1 26.2C67.1 26.8 67 27.3 66.8 27.7C66.6 28.2 66.3 28.5 66 28.9C65.7 29.2 65.3 29.5 64.8 29.7C64.4 29.9 63.9 30 63.4 30V30.8H61.2ZM61.2 28.2V24.3C60.9 24.3 60.7 24.4 60.5 24.6C60.3 24.8 60.1 25 60 25.2C59.9 25.5 59.8 25.8 59.8 26.2C59.8 26.5 59.8 26.8 59.9 27C60 27.2 60.1 27.4 60.2 27.6C60.3 27.8 60.5 27.9 60.7 28C60.9 28.1 61 28.2 61.2 28.2ZM63.3 28.2C63.5 28.2 63.8 28.1 64 27.9C64.2 27.8 64.4 27.5 64.5 27.3C64.6 27 64.7 26.7 64.7 26.3C64.7 26 64.7 25.7 64.6 25.5C64.5 25.3 64.4 25.1 64.3 24.9C64.2 24.7 64 24.6 63.9 24.5C63.7 24.4 63.5 24.3 63.4 24.3V28.2H63.3Z" fill="currentColor"/>
<path d="M68.4004 30.8V22.2H72.1004C72.5004 22.2 72.9004 22.3 73.3004 22.5C73.7004 22.7 74.0004 22.9 74.2004 23.2C74.5004 23.5 74.7004 23.8 74.8004 24.2C74.9004 24.6 75.0004 24.9 75.0004 25.3C75.0004 25.8 74.9004 26.3 74.6004 26.7C74.4004 27.2 74.0004 27.5 73.6004 27.8C73.2004 28.1 72.7004 28.2 72.1004 28.2H70.7004V30.9H68.4004V30.8ZM70.8004 26.1H72.0004C72.1004 26.1 72.2004 26.1 72.3004 26C72.4004 25.9 72.5004 25.8 72.5004 25.7C72.6004 25.6 72.6004 25.4 72.6004 25.2C72.6004 25 72.6004 24.8 72.5004 24.6C72.4004 24.5 72.3004 24.4 72.2004 24.3C72.1004 24.2 72.0004 24.2 71.9004 24.2H70.7004V26.1H70.8004Z" fill="currentColor"/>
<path d="M80.0992 30.9C79.3992 30.9 78.8992 30.8 78.2992 30.5C77.7992 30.3 77.2992 29.9 76.8992 29.5C76.4992 29.1 76.1992 28.6 75.9992 28.1C75.7992 27.6 75.6992 27 75.6992 26.5C75.6992 25.9 75.7992 25.4 75.9992 24.9C76.1992 24.4 76.4992 23.9 76.8992 23.5C77.2992 23.1 77.7992 22.8 78.2992 22.5C78.7992 22.3 79.3992 22.1 80.0992 22.1C80.7992 22.1 81.2992 22.2 81.8992 22.5C82.3992 22.7 82.8992 23.1 83.2992 23.5C83.6992 23.9 83.9992 24.4 84.1992 24.9C84.3992 25.4 84.4992 26 84.4992 26.5C84.4992 27.1 84.3992 27.6 84.1992 28.1C83.9992 28.6 83.6992 29.1 83.2992 29.5C82.8992 29.9 82.3992 30.2 81.8992 30.5C81.3992 30.8 80.7992 30.9 80.0992 30.9ZM78.1992 26.5C78.1992 26.8 78.1992 27.1 78.2992 27.3C78.3992 27.6 78.4992 27.8 78.6992 28C78.8992 28.2 79.0992 28.4 79.2992 28.5C79.4992 28.6 79.7992 28.7 80.1992 28.7C80.4992 28.7 80.7992 28.6 81.0992 28.5C81.3992 28.4 81.5992 28.2 81.6992 28C81.8992 27.8 81.9992 27.5 82.0992 27.3C82.1992 27 82.1992 26.8 82.1992 26.5C82.1992 26.2 82.1992 25.9 82.0992 25.7C81.9992 25.4 81.8992 25.2 81.6992 25C81.4992 24.8 81.2992 24.6 81.0992 24.5C80.7992 24.4 80.5992 24.3 80.1992 24.3C79.8992 24.3 79.5992 24.4 79.2992 24.5C79.0992 24.6 78.7992 24.8 78.6992 25C78.4992 25.2 78.3992 25.5 78.2992 25.7C78.1992 26 78.1992 26.2 78.1992 26.5Z" fill="currentColor"/>
<path d="M93.2004 28.6C93.2004 29.1 93.1004 29.5 92.8004 29.9C92.5004 30.2 92.1004 30.5 91.7004 30.6C91.2004 30.8 90.7004 30.8 90.1004 30.8H85.9004V22.2H90.9004C91.3004 22.2 91.7004 22.3 91.9004 22.5C92.2004 22.7 92.4004 23 92.6004 23.3C92.8004 23.6 92.8004 24 92.8004 24.4C92.8004 24.8 92.7004 25.2 92.5004 25.6C92.3004 26 92.0004 26.3 91.6004 26.4C92.1004 26.5 92.5004 26.8 92.8004 27.2C93.0004 27.6 93.2004 28 93.2004 28.6ZM88.2004 24.2V25.5H89.8004C89.9004 25.5 90.0004 25.5 90.1004 25.4C90.2004 25.4 90.3004 25.3 90.3004 25.2C90.4004 25.1 90.4004 25 90.4004 24.8C90.4004 24.6 90.4004 24.5 90.3004 24.4C90.2004 24.3 90.2004 24.2 90.1004 24.2C90.0004 24.2 89.9004 24.1 89.8004 24.1H88.2004V24.2ZM90.8004 28.1C90.8004 28 90.8004 27.8 90.7004 27.7C90.6004 27.6 90.6004 27.5 90.5004 27.4C90.4004 27.3 90.3004 27.3 90.2004 27.3H88.2004V28.7H90.1004C90.2004 28.7 90.3004 28.7 90.5004 28.6C90.6004 28.5 90.7004 28.5 90.7004 28.4C90.7004 28.4 90.8004 28.3 90.8004 28.1Z" fill="currentColor"/>
<path d="M96.2996 22.2H98.8996L101.6 30.8H99.1996L98.7996 29.1H96.3996L95.9996 30.8H93.5996L96.2996 22.2ZM98.3996 27.6L97.5996 24.6L96.7996 27.6H98.3996Z" fill="currentColor"/>
<path d="M102.5 30.8L104.5 27.5C104 27.3 103.7 27 103.4 26.5C103.1 26.1 103 25.5 103 24.9C103 24.3 103.1 23.9 103.4 23.4C103.7 23 104 22.6 104.4 22.4C104.8 22.2 105.3 22 105.9 22H109.9V30.6H107.5V27.6H107.2C107.2 27.6 107.1 27.6 107 27.6C106.9 27.6 106.9 27.6 106.8 27.6L105.1 30.6H102.5V30.8ZM106.2 25.8H107.4V24.2H106.2C106.1 24.2 105.9 24.2 105.8 24.3C105.7 24.3 105.6 24.4 105.5 24.5C105.4 24.6 105.4 24.8 105.4 25C105.4 25.2 105.4 25.4 105.5 25.5C105.6 25.6 105.7 25.7 105.8 25.7C105.9 25.8 106 25.8 106.2 25.8Z" fill="currentColor"/>
<path d="M14.2 20H0V34.3H14.2V20Z" fill="currentColor"/>
<path d="M35.3992 20H21.1992V34.3H35.3992V20Z" fill="currentColor"/>
<path d="M70.7004 20H68.9004V1.8H18.7004V52.2H69.0004V34.3H70.7004V54H16.9004V0H70.7004V20Z" fill="currentColor"/>
<path d="M154.498 24.5C154.398 24.6 154.398 24.8 154.398 25C154.398 25.2 154.398 25.4 154.498 25.5C154.598 25.6 154.698 25.7 154.798 25.7C154.898 25.7 155.098 25.8 155.198 25.8H156.398V24.2H155.198C155.098 24.2 154.898 24.2 154.798 24.3C154.698 24.3 154.598 24.4 154.498 24.5Z" fill="currentColor"/>
<path d="M128.6 24.9C128.4 24.7 128.2 24.5 128 24.4C127.7 24.3 127.5 24.2 127.1 24.2C126.8 24.2 126.5 24.3 126.2 24.4C126 24.5 125.7 24.7 125.6 24.9C125.4 25.1 125.3 25.4 125.2 25.6C125.1 25.9 125.1 26.1 125.1 26.4C125.1 26.7 125.1 27 125.2 27.2C125.3 27.5 125.4 27.7 125.6 27.9C125.8 28.1 126 28.3 126.2 28.4C126.4 28.5 126.7 28.6 127.1 28.6C127.4 28.6 127.7 28.5 128 28.4C128.3 28.3 128.5 28.1 128.6 27.9C128.8 27.7 128.9 27.4 129 27.2C129.1 26.9 129.1 26.7 129.1 26.4C129.1 26.1 129.1 25.8 129 25.6C128.9 25.4 128.8 25.1 128.6 24.9Z" fill="currentColor"/>
<path d="M111.699 19.9V34.2H161.999V19.9H111.699ZM119.699 30.8L117.399 27.5H116.999V30.8H114.599V22.2H116.999V25.4H117.499L119.699 22.2H122.299L119.299 26.4L122.599 30.9H119.699V30.8ZM131.199 28.2C130.999 28.7 130.699 29.2 130.299 29.6C129.899 30 129.399 30.3 128.899 30.6C128.399 30.8 127.799 31 127.099 31C126.399 31 125.899 30.9 125.299 30.6C124.799 30.4 124.299 30 123.899 29.6C123.499 29.2 123.199 28.7 122.999 28.2C122.799 27.7 122.699 27.1 122.699 26.6C122.699 26 122.799 25.5 122.999 25C123.199 24.5 123.499 24 123.899 23.6C124.299 23.2 124.799 22.9 125.299 22.6C125.799 22.4 126.399 22.2 127.099 22.2C127.799 22.2 128.299 22.3 128.899 22.6C129.399 22.8 129.899 23.2 130.299 23.6C130.699 24 130.999 24.5 131.199 25C131.399 25.5 131.499 26.1 131.499 26.6C131.499 27.1 131.399 27.6 131.199 28.2ZM140.299 30.8H137.899V24.2H135.199V30.8H132.799V22.2H140.199V30.8H140.299ZM149.899 30.8H147.499V25.5L144.399 30.8H142.199V22.2H144.599V27.5L147.799 22.2H149.999V30.8H149.899ZM158.799 30.8H156.399V27.8H156.099C156.099 27.8 155.999 27.8 155.899 27.8C155.799 27.8 155.799 27.8 155.699 27.8L153.999 30.8H151.299L153.299 27.5C152.799 27.3 152.499 27 152.199 26.5C151.899 26.1 151.799 25.5 151.799 24.9C151.799 24.3 151.899 23.9 152.199 23.4C152.499 23 152.799 22.6 153.199 22.4C153.599 22.2 154.099 22 154.699 22H158.699V30.8H158.799Z" fill="currentColor"/>
<path d="M44.8 32.5V30.8H38.5V22.2H40.9V28.8H43.3V22.2H45.7V28.8H46.9V32.5H44.8Z" fill="currentColor"/>
<path d="M48.3008 30.8V22.2H50.7008V27.5L53.9008 22.2H56.1008V30.8H53.7008V25.5L50.6008 30.8H48.3008Z" fill="currentColor"/>
<path d="M61.2 30.8V30C60.7 30 60.3 29.9 59.8 29.7C59.4 29.5 59 29.2 58.6 28.9C58.3 28.6 58 28.2 57.8 27.7C57.6 27.2 57.5 26.7 57.5 26.2C57.5 25.6 57.6 25.1 57.8 24.6C58 24.1 58.3 23.7 58.6 23.4C59 23.1 59.3 22.8 59.8 22.6C60.2 22.4 60.7 22.3 61.2 22.3V21.6H63.4V22.3C63.9 22.3 64.3 22.4 64.8 22.6C65.2 22.8 65.6 23 66 23.4C66.4 23.7 66.6 24.1 66.8 24.6C67 25.1 67.1 25.6 67.1 26.2C67.1 26.8 67 27.3 66.8 27.7C66.6 28.2 66.3 28.5 66 28.9C65.7 29.2 65.3 29.5 64.8 29.7C64.4 29.9 63.9 30 63.4 30V30.8H61.2ZM61.2 28.2V24.3C60.9 24.3 60.7 24.4 60.5 24.6C60.3 24.8 60.1 25 60 25.2C59.9 25.5 59.8 25.8 59.8 26.2C59.8 26.5 59.8 26.8 59.9 27C60 27.2 60.1 27.4 60.2 27.6C60.3 27.8 60.5 27.9 60.7 28C60.9 28.1 61 28.2 61.2 28.2ZM63.3 28.2C63.5 28.2 63.8 28.1 64 27.9C64.2 27.8 64.4 27.5 64.5 27.3C64.6 27 64.7 26.7 64.7 26.3C64.7 26 64.7 25.7 64.6 25.5C64.5 25.3 64.4 25.1 64.3 24.9C64.2 24.7 64 24.6 63.9 24.5C63.7 24.4 63.5 24.3 63.4 24.3V28.2H63.3Z" fill="currentColor"/>
<path d="M68.4004 30.8V22.2H72.1004C72.5004 22.2 72.9004 22.3 73.3004 22.5C73.7004 22.7 74.0004 22.9 74.2004 23.2C74.5004 23.5 74.7004 23.8 74.8004 24.2C74.9004 24.6 75.0004 24.9 75.0004 25.3C75.0004 25.8 74.9004 26.3 74.6004 26.7C74.4004 27.2 74.0004 27.5 73.6004 27.8C73.2004 28.1 72.7004 28.2 72.1004 28.2H70.7004V30.9H68.4004V30.8ZM70.8004 26.1H72.0004C72.1004 26.1 72.2004 26.1 72.3004 26C72.4004 25.9 72.5004 25.8 72.5004 25.7C72.6004 25.6 72.6004 25.4 72.6004 25.2C72.6004 25 72.6004 24.8 72.5004 24.6C72.4004 24.5 72.3004 24.4 72.2004 24.3C72.1004 24.2 72.0004 24.2 71.9004 24.2H70.7004V26.1H70.8004Z" fill="currentColor"/>
<path d="M80.0992 30.9C79.3992 30.9 78.8992 30.8 78.2992 30.5C77.7992 30.3 77.2992 29.9 76.8992 29.5C76.4992 29.1 76.1992 28.6 75.9992 28.1C75.7992 27.6 75.6992 27 75.6992 26.5C75.6992 25.9 75.7992 25.4 75.9992 24.9C76.1992 24.4 76.4992 23.9 76.8992 23.5C77.2992 23.1 77.7992 22.8 78.2992 22.5C78.7992 22.3 79.3992 22.1 80.0992 22.1C80.7992 22.1 81.2992 22.2 81.8992 22.5C82.3992 22.7 82.8992 23.1 83.2992 23.5C83.6992 23.9 83.9992 24.4 84.1992 24.9C84.3992 25.4 84.4992 26 84.4992 26.5C84.4992 27.1 84.3992 27.6 84.1992 28.1C83.9992 28.6 83.6992 29.1 83.2992 29.5C82.8992 29.9 82.3992 30.2 81.8992 30.5C81.3992 30.8 80.7992 30.9 80.0992 30.9ZM78.1992 26.5C78.1992 26.8 78.1992 27.1 78.2992 27.3C78.3992 27.6 78.4992 27.8 78.6992 28C78.8992 28.2 79.0992 28.4 79.2992 28.5C79.4992 28.6 79.7992 28.7 80.1992 28.7C80.4992 28.7 80.7992 28.6 81.0992 28.5C81.3992 28.4 81.5992 28.2 81.6992 28C81.8992 27.8 81.9992 27.5 82.0992 27.3C82.1992 27 82.1992 26.8 82.1992 26.5C82.1992 26.2 82.1992 25.9 82.0992 25.7C81.9992 25.4 81.8992 25.2 81.6992 25C81.4992 24.8 81.2992 24.6 81.0992 24.5C80.7992 24.4 80.5992 24.3 80.1992 24.3C79.8992 24.3 79.5992 24.4 79.2992 24.5C79.0992 24.6 78.7992 24.8 78.6992 25C78.4992 25.2 78.3992 25.5 78.2992 25.7C78.1992 26 78.1992 26.2 78.1992 26.5Z" fill="currentColor"/>
<path d="M93.2004 28.6C93.2004 29.1 93.1004 29.5 92.8004 29.9C92.5004 30.2 92.1004 30.5 91.7004 30.6C91.2004 30.8 90.7004 30.8 90.1004 30.8H85.9004V22.2H90.9004C91.3004 22.2 91.7004 22.3 91.9004 22.5C92.2004 22.7 92.4004 23 92.6004 23.3C92.8004 23.6 92.8004 24 92.8004 24.4C92.8004 24.8 92.7004 25.2 92.5004 25.6C92.3004 26 92.0004 26.3 91.6004 26.4C92.1004 26.5 92.5004 26.8 92.8004 27.2C93.0004 27.6 93.2004 28 93.2004 28.6ZM88.2004 24.2V25.5H89.8004C89.9004 25.5 90.0004 25.5 90.1004 25.4C90.2004 25.4 90.3004 25.3 90.3004 25.2C90.4004 25.1 90.4004 25 90.4004 24.8C90.4004 24.6 90.4004 24.5 90.3004 24.4C90.2004 24.3 90.2004 24.2 90.1004 24.2C90.0004 24.2 89.9004 24.1 89.8004 24.1H88.2004V24.2ZM90.8004 28.1C90.8004 28 90.8004 27.8 90.7004 27.7C90.6004 27.6 90.6004 27.5 90.5004 27.4C90.4004 27.3 90.3004 27.3 90.2004 27.3H88.2004V28.7H90.1004C90.2004 28.7 90.3004 28.7 90.5004 28.6C90.6004 28.5 90.7004 28.5 90.7004 28.4C90.7004 28.4 90.8004 28.3 90.8004 28.1Z" fill="currentColor"/>
<path d="M96.2996 22.2H98.8996L101.6 30.8H99.1996L98.7996 29.1H96.3996L95.9996 30.8H93.5996L96.2996 22.2ZM98.3996 27.6L97.5996 24.6L96.7996 27.6H98.3996Z" fill="currentColor"/>
<path d="M102.5 30.8L104.5 27.5C104 27.3 103.7 27 103.4 26.5C103.1 26.1 103 25.5 103 24.9C103 24.3 103.1 23.9 103.4 23.4C103.7 23 104 22.6 104.4 22.4C104.8 22.2 105.3 22 105.9 22H109.9V30.6H107.5V27.6H107.2C107.2 27.6 107.1 27.6 107 27.6C106.9 27.6 106.9 27.6 106.8 27.6L105.1 30.6H102.5V30.8ZM106.2 25.8H107.4V24.2H106.2C106.1 24.2 105.9 24.2 105.8 24.3C105.7 24.3 105.6 24.4 105.5 24.5C105.4 24.6 105.4 24.8 105.4 25C105.4 25.2 105.4 25.4 105.5 25.5C105.6 25.6 105.7 25.7 105.8 25.7C105.9 25.8 106 25.8 106.2 25.8Z" fill="currentColor"/>
</g>
<defs>
<clipPath id="clip0_21_255">
<rect width="162" height="54" fill="currentColor"/>
</clipPath>
</defs>
</svg>
