<svg width="22" height="22" viewBox="0 0 22 22" fill="none" xmlns="http://www.w3.org/2000/svg">
<g clip-path="url(#clip0_448_984)">
<path d="M20.1663 6.90723V15.5835C20.1664 16.2849 19.8984 16.9599 19.4172 17.4702C18.936 17.9806 18.2779 18.2877 17.5777 18.3289L17.4163 18.3335H4.58301C3.88156 18.3335 3.20662 18.0655 2.69627 17.5843C2.18592 17.1031 1.87874 16.445 1.83759 15.7448L1.83301 15.5835V6.90723L10.4909 12.6795L10.5973 12.74C10.7226 12.8012 10.8602 12.833 10.9997 12.833C11.1391 12.833 11.2768 12.8012 11.4021 12.74L11.5084 12.6795L20.1663 6.90723Z" fill="white"/>
<path d="M17.4166 3.66602C18.4066 3.66602 19.2747 4.18852 19.7587 4.9741L11 10.8133L2.24121 4.9741C2.47105 4.6008 2.78682 4.28788 3.16219 4.06145C3.53756 3.83502 3.96164 3.70163 4.39904 3.67243L4.58329 3.66602H17.4166Z" fill="white"/>
</g>
<defs>
<clipPath id="clip0_448_984">
<rect width="22" height="22" fill="white"/>
</clipPath>
</defs>
</svg>
