<svg width="25" height="26" viewBox="0 0 25 26" fill="none" xmlns="http://www.w3.org/2000/svg">
<g clip-path="url(#clip0_432_1054)">
<path fill-rule="evenodd" clip-rule="evenodd" d="M18.1248 1.30957H6.87476C6.37747 1.30957 5.90056 1.50711 5.54893 1.85875C5.1973 2.21038 4.99976 2.68729 4.99976 3.18457V23.1846C4.99976 23.6819 5.1973 24.1588 5.54893 24.5104C5.90056 24.862 6.37747 25.0596 6.87476 25.0596H18.1248C18.622 25.0596 19.0989 24.862 19.4506 24.5104C19.8022 24.1588 19.9998 23.6819 19.9998 23.1846V3.18457C19.9998 2.68729 19.8022 2.21038 19.4506 1.85875C19.0989 1.50711 18.622 1.30957 18.1248 1.30957ZM6.24976 3.18457C6.24976 3.01881 6.3156 2.85984 6.43281 2.74263C6.55002 2.62542 6.709 2.55957 6.87476 2.55957H18.1248C18.2905 2.55957 18.4495 2.62542 18.5667 2.74263C18.6839 2.85984 18.7498 3.01881 18.7498 3.18457V23.1846C18.7498 23.3503 18.6839 23.5093 18.5667 23.6265C18.4495 23.7437 18.2905 23.8096 18.1248 23.8096H6.87476C6.709 23.8096 6.55002 23.7437 6.43281 23.6265C6.3156 23.5093 6.24976 23.3503 6.24976 23.1846V3.18457Z" fill="white"/>
<path d="M12.4998 23.1846C12.1682 23.1846 11.8503 23.0529 11.6159 22.8185C11.3815 22.584 11.2498 22.2661 11.2498 21.9346C11.2498 21.603 11.3815 21.2851 11.6159 21.0507C11.8503 20.8163 12.1682 20.6846 12.4998 20.6846C12.8313 20.6846 13.1492 20.8163 13.3836 21.0507C13.6181 21.2851 13.7498 21.603 13.7498 21.9346C13.7498 22.2661 13.6181 22.584 13.3836 22.8185C13.1492 23.0529 12.8313 23.1846 12.4998 23.1846Z" fill="white"/>
</g>
<defs>
<clipPath id="clip0_432_1054">
<rect width="25" height="25" fill="white" transform="translate(-0.000244141 0.68457)"/>
</clipPath>
</defs>
</svg>
