<svg width="24" height="24" viewBox="0 0 24 24" fill="none" xmlns="http://www.w3.org/2000/svg">
<path d="M16.4991 15.1874C15.9979 15.1875 15.5024 15.2937 15.0452 15.4989C14.5879 15.7041 14.1793 16.0037 13.846 16.378L9.26164 13.4249C9.45947 12.9759 9.56164 12.4906 9.56164 11.9999C9.56164 11.5092 9.45947 11.024 9.26164 10.5749L13.846 7.6218C14.4018 8.24203 15.1573 8.64794 15.9813 8.76899C16.8053 8.89005 17.6456 8.71861 18.3563 8.28445C19.067 7.8503 19.6031 7.18087 19.8715 6.39249C20.14 5.60411 20.1237 4.74661 19.8255 3.96899C19.5274 3.19137 18.9662 2.54278 18.2396 2.13591C17.5129 1.72904 16.6667 1.58962 15.8479 1.74186C15.0291 1.89411 14.2895 2.3284 13.7577 2.96928C13.2258 3.61015 12.9353 4.41711 12.9366 5.24992C12.9335 5.74092 13.0358 6.22686 13.2366 6.67492L8.65226 9.62805C8.17166 9.08945 7.53878 8.70955 6.83744 8.53867C6.13611 8.3678 5.39941 8.41401 4.72492 8.67119C4.05043 8.92836 3.46999 9.38437 3.06046 9.97881C2.65093 10.5732 2.43164 11.2781 2.43164 11.9999C2.43164 12.7218 2.65093 13.4266 3.06046 14.021C3.46999 14.6155 4.05043 15.0715 4.72492 15.3287C5.39941 15.5858 6.13611 15.632 6.83744 15.4612C7.53878 15.2903 8.17166 14.9104 8.65226 14.3718L13.2366 17.3249C13.0358 17.773 12.9335 18.2589 12.9366 18.7499C12.9366 19.4545 13.1456 20.1433 13.537 20.7291C13.9285 21.315 14.4849 21.7716 15.1358 22.0412C15.7868 22.3109 16.5031 22.3814 17.1941 22.244C17.8852 22.1065 18.52 21.7672 19.0182 21.269C19.5164 20.7708 19.8557 20.136 19.9932 19.4449C20.1306 18.7539 20.0601 18.0376 19.7905 17.3866C19.5208 16.7357 19.0642 16.1793 18.4784 15.7878C17.8925 15.3964 17.2037 15.1874 16.4991 15.1874ZM16.4991 2.81242C16.9812 2.81242 17.4525 2.95538 17.8533 3.22322C18.2542 3.49105 18.5666 3.87174 18.7511 4.31713C18.9356 4.76253 18.9839 5.25263 18.8898 5.72546C18.7958 6.19829 18.5636 6.63261 18.2227 6.9735C17.8818 7.31439 17.4475 7.54654 16.9747 7.64059C16.5018 7.73464 16.0117 7.68637 15.5663 7.50188C15.121 7.31739 14.7403 7.00497 14.4724 6.60413C14.2046 6.20328 14.0616 5.73202 14.0616 5.24992C14.0641 4.60422 14.3217 3.98566 14.7783 3.52908C15.2349 3.07249 15.8534 2.81489 16.4991 2.81242ZM5.99914 14.4374C5.51705 14.4374 5.04578 14.2945 4.64494 14.0266C4.24409 13.7588 3.93167 13.3781 3.74718 12.9327C3.56269 12.4873 3.51442 11.9972 3.60847 11.5244C3.70253 11.0516 3.93467 10.6172 4.27557 10.2764C4.61646 9.93546 5.05078 9.70331 5.52361 9.60926C5.99643 9.51521 6.48653 9.56348 6.93193 9.74797C7.37732 9.93246 7.75801 10.2449 8.02585 10.6457C8.29368 11.0466 8.43664 11.5178 8.43664 11.9999C8.43417 12.6456 8.17657 13.2642 7.71998 13.7208C7.2634 14.1774 6.64484 14.435 5.99914 14.4374ZM16.4991 21.1874C16.017 21.1874 15.5458 21.0445 15.1449 20.7766C14.7441 20.5088 14.4317 20.1281 14.2472 19.6827C14.0627 19.2373 14.0144 18.7472 14.1085 18.2744C14.2025 17.8016 14.4347 17.3672 14.7756 17.0264C15.1165 16.6855 15.5508 16.4533 16.0236 16.3593C16.4964 16.2652 16.9865 16.3135 17.4319 16.498C17.8773 16.6825 18.258 16.9949 18.5258 17.3957C18.7937 17.7966 18.9366 18.2678 18.9366 18.7499C18.9342 19.3956 18.6766 20.0142 18.22 20.4708C17.7634 20.9274 17.1448 21.185 16.4991 21.1874Z" fill="black"/>
</svg>
