<svg width="22" height="23" viewBox="0 0 22 23" fill="none" xmlns="http://www.w3.org/2000/svg">
<g clip-path="url(#clip0_432_1060)">
<path d="M21.9998 11.0992V11.0937C21.9998 7.83862 20.5826 4.91537 18.3322 2.90512L18.3212 2.89595C18.2934 2.86599 18.2623 2.83924 18.2286 2.8162L18.2268 2.81528C16.2281 1.06035 13.6577 0.0949353 10.9979 0.100118C8.21859 0.100118 5.68126 1.13228 3.74709 2.83545L3.75901 2.82537C3.7357 2.84305 3.7142 2.86301 3.69484 2.88495C2.53208 3.91454 1.60135 5.18037 0.964328 6.5968C0.327304 8.01324 -0.00147879 9.54886 -0.000240657 11.102C-0.000240657 14.3561 1.41509 17.2794 3.66368 19.2905L3.67468 19.2997C3.70379 19.3327 3.73637 19.3625 3.77184 19.3886L3.77368 19.3895C5.77186 21.1419 8.34022 22.1059 10.9979 22.101C13.668 22.1051 16.2474 21.1322 18.2497 19.3657L18.2378 19.3758C19.4207 18.3473 20.3689 17.0768 21.0182 15.6502C21.6676 14.2235 22.0029 12.674 22.0016 11.1065V11.1001L21.9998 11.0992ZM17.9096 18.2538C17.3647 17.813 16.7787 17.4256 16.1597 17.0969L16.1001 17.0676C16.662 15.4479 17.0003 13.5806 17.0323 11.6382V11.6235H20.9383C20.8065 14.1365 19.7249 16.5055 17.9123 18.251L17.9096 18.2538ZM11.5241 16.8742C12.7002 16.9374 13.7993 17.196 14.8131 17.6167L14.7471 17.5929C13.9349 19.4445 12.7918 20.7169 11.5241 20.9965V16.8742ZM11.5241 15.8255V11.6235H15.9864C15.951 13.3636 15.6493 15.088 15.0918 16.7367L15.1275 16.6166C13.9894 16.1489 12.779 15.8815 11.5498 15.8265L11.525 15.8255H11.5241ZM11.5241 10.5749V6.37287C12.7865 6.31525 14.0293 6.0389 15.1972 5.55612L15.1248 5.5827C15.6335 7.06678 15.9461 8.77728 15.9864 10.5556V10.5749H11.5241ZM11.5241 5.3242V1.20378C12.7918 1.48337 13.9349 2.7502 14.7471 4.60737C13.7993 5.00153 12.7002 5.25912 11.5507 5.32328L11.5241 5.3242ZM14.1403 1.65753C15.2204 2.01782 16.2306 2.56106 17.1268 3.26353L17.1057 3.24703C16.6996 3.56603 16.244 3.8667 15.7637 4.12795L15.7123 4.15362C15.3242 3.23762 14.7905 2.39038 14.132 1.6447L14.1403 1.65478V1.65753ZM10.4736 1.20653V5.3242C9.34288 5.26652 8.23042 5.01538 7.18459 4.5817L7.25059 4.60553C8.06643 2.75387 9.20768 1.48245 10.4754 1.20287L10.4736 1.20653ZM6.28626 4.15087C5.78936 3.88353 5.3159 3.57474 4.87093 3.22778L4.89293 3.24428C5.76296 2.56243 6.74158 2.0319 7.78776 1.67495L7.85743 1.65387C7.21614 2.37935 6.6936 3.20167 6.30918 4.09037L6.28626 4.15087ZM10.4754 6.37195V10.574H6.01309C6.05343 8.77637 6.36601 7.06587 6.91051 5.4617L6.87476 5.58178C8.0124 6.0488 9.22215 6.31581 10.4507 6.37103L10.4754 6.37195ZM10.4754 11.6226V15.8246C9.21302 15.8822 7.97021 16.1586 6.80234 16.6414L6.87476 16.6148C6.36601 15.1316 6.05343 13.4202 6.01309 11.6419V11.6226H10.4754ZM10.4754 16.8733V20.9937C9.20768 20.7141 8.06459 19.4473 7.25243 17.5901C8.20026 17.196 9.29934 16.9393 10.4488 16.8751L10.4754 16.8733ZM7.86293 20.54C6.78305 20.1807 5.77287 19.6387 4.87643 18.9376L4.89843 18.9541C5.30451 18.6351 5.76009 18.3345 6.24043 18.0732L6.29176 18.0475C6.67665 18.9639 7.21031 19.8104 7.87118 20.5528L7.86293 20.5436V20.54ZM15.7133 18.0466C16.2449 18.3354 16.7005 18.6351 17.1286 18.9697L17.1066 18.9532C16.2366 19.6351 15.2579 20.1656 14.2118 20.5225L14.1421 20.5436C14.7834 19.8185 15.3059 18.9965 15.6903 18.108L15.7133 18.0484V18.0466ZM20.9383 10.5749H17.0323C17.0042 8.67824 16.6769 6.79793 16.0625 5.00337L16.1001 5.12987C16.7476 4.78893 17.3607 4.38616 17.9307 3.9272L17.9087 3.9437C19.7175 5.68264 20.7995 8.04288 20.9364 10.5483L20.9373 10.574L20.9383 10.5749ZM4.08993 3.94462C4.61793 4.37362 5.21101 4.76687 5.83984 5.10145L5.89943 5.13078C5.33751 6.75053 4.99926 8.61778 4.96718 10.5602V10.5749H1.06034C1.19206 8.06192 2.27369 5.69289 4.08626 3.94737L4.08993 3.94462ZM1.06126 11.6235H4.96718C4.99528 13.5202 5.32258 15.4005 5.93701 17.195L5.89943 17.0685C5.21101 17.4343 4.61884 17.8275 4.06884 18.2712L4.09084 18.2547C2.28202 16.5158 1.20001 14.1555 1.06309 11.6501L1.06218 11.6245L1.06126 11.6235Z" fill="white"/>
</g>
<defs>
<clipPath id="clip0_432_1060">
<rect width="22" height="22" fill="white" transform="translate(-0.000244141 0.0986328)"/>
</clipPath>
</defs>
</svg>
